<svg width="14" height="15" viewBox="0 0 14 15" fill="none" xmlns="http://www.w3.org/2000/svg">
<path d="M12.8278 2.83341C12.8278 2.19175 12.3087 1.66675 11.667 1.66675H2.33366C1.69199 1.66675 1.16699 2.19175 1.16699 2.83341V9.83342C1.16699 10.4751 1.69199 11.0001 2.33366 11.0001H10.5003L12.8337 13.3334L12.8278 2.83341ZM9.91699 8.66675H4.08366C3.76283 8.66675 3.50033 8.40425 3.50033 8.08342C3.50033 7.76258 3.76283 7.50008 4.08366 7.50008H9.91699C10.2378 7.50008 10.5003 7.76258 10.5003 8.08342C10.5003 8.40425 10.2378 8.66675 9.91699 8.66675ZM9.91699 6.91675H4.08366C3.76283 6.91675 3.50033 6.65425 3.50033 6.33342C3.50033 6.01258 3.76283 5.75008 4.08366 5.75008H9.91699C10.2378 5.75008 10.5003 6.01258 10.5003 6.33342C10.5003 6.65425 10.2378 6.91675 9.91699 6.91675ZM9.91699 5.16675H4.08366C3.76283 5.16675 3.50033 4.90425 3.50033 4.58342C3.50033 4.26258 3.76283 4.00008 4.08366 4.00008H9.91699C10.2378 4.00008 10.5003 4.26258 10.5003 4.58342C10.5003 4.90425 10.2378 5.16675 9.91699 5.16675Z" fill="url(#paint0_linear_5_6641)"/>
<defs>
<linearGradient id="paint0_linear_5_6641" x1="12.8337" y1="13.3618" x2="1.16699" y2="1.69509" gradientUnits="userSpaceOnUse">
<stop stop-color="#FF6861"/>
<stop offset="1" stop-color="#FF8B86"/>
</linearGradient>
</defs>
</svg>
