<svg width="14" height="12" viewBox="0 0 14 12" fill="none" xmlns="http://www.w3.org/2000/svg">
<path d="M7.65301 0.70173L4.42134 3.9334C4.20551 4.14923 4.08301 4.44673 4.08301 4.7559V10.5834C4.08301 11.2251 4.60801 11.7501 5.24967 11.7501H10.4997C10.9663 11.7501 11.3863 11.4701 11.573 11.0442L13.4747 6.60506C13.9647 5.45006 13.1188 4.16673 11.8647 4.16673H8.56884L9.12301 1.49506C9.18134 1.2034 9.09384 0.905897 8.88384 0.695897C8.53967 0.357563 7.99134 0.357563 7.65301 0.70173ZM1.74967 11.7501C2.39134 11.7501 2.91634 11.2251 2.91634 10.5834V5.91673C2.91634 5.27506 2.39134 4.75006 1.74967 4.75006C1.10801 4.75006 0.583008 5.27506 0.583008 5.91673V10.5834C0.583008 11.2251 1.10801 11.7501 1.74967 11.7501Z" fill="url(#paint0_linear_5_6640)"/>
<defs>
<linearGradient id="paint0_linear_5_6640" x1="13.6158" y1="11.7775" x2="2.42174" y2="-1.12493" gradientUnits="userSpaceOnUse">
<stop stop-color="#FF6861"/>
<stop offset="1" stop-color="#FF8B86"/>
</linearGradient>
</defs>
</svg>
